<svg xmlns="http://www.w3.org/2000/svg" viewBox="-1205 177 200 220.628">
  <defs>
    <style>
      .cls-1 {
        fill: #fff;
      }
    </style>
  </defs>
  <g id="Group_55" data-name="Group 55" transform="translate(-1205 177)">
    <path id="Path_32" data-name="Path 32" class="cls-1" d="M98.076,150.4q-8.879,0-9.686,13.184l-.09,3.229c0,5.291.807,9.148,2.511,11.57a8.338,8.338,0,0,0,7.354,3.677c6.368,0,9.6-4.843,9.686-14.619v-1.794C107.852,155.512,104.623,150.4,98.076,150.4Z" transform="translate(-9.107 -15.512)"/>
    <path id="Path_33" data-name="Path 33" class="cls-1" d="M102.774,211.1a3.9,3.9,0,0,0-3.408,1.7,8.669,8.669,0,0,0-1.166,5.022,8.108,8.108,0,0,0,1.166,4.753,3.8,3.8,0,0,0,3.408,1.7,5.521,5.521,0,0,0,3.049-.807,4.7,4.7,0,0,0,1.794-2.332v-6.457A4.8,4.8,0,0,0,102.774,211.1Z" transform="translate(-10.128 -21.773)"/>
    <path id="Path_34" data-name="Path 34" class="cls-1" d="M115.445,219.556a2.847,2.847,0,0,0-1.345,2.422,2.557,2.557,0,0,0,1.076,2.152,3.68,3.68,0,0,0,2.6.9,6.049,6.049,0,0,0,3.408-.9,5.338,5.338,0,0,0,2.152-2.511V218.3h-3.229A8.258,8.258,0,0,0,115.445,219.556Z" transform="translate(-11.768 -22.515)"/>
    <path id="Path_35" data-name="Path 35" class="cls-1" d="M79.641,212.007a5.121,5.121,0,0,0-2.87-.807,4.8,4.8,0,0,0-3.946,1.883,7.283,7.283,0,0,0-1.525,4.664v.448a7.737,7.737,0,0,0,.717,3.229,5.526,5.526,0,0,0,1.973,2.332,5.121,5.121,0,0,0,2.87.807,4.987,4.987,0,0,0,3.946-1.794,7.11,7.11,0,0,0,1.525-4.664v-.448a7.737,7.737,0,0,0-.717-3.229A5.458,5.458,0,0,0,79.641,212.007Z" transform="translate(-7.354 -21.783)"/>
    <path id="Path_36" data-name="Path 36" class="cls-1" d="M116.3,121.612a5.308,5.308,0,0,0-.628-2.6,4.764,4.764,0,0,0-1.614-1.883,4.142,4.142,0,0,0-2.332-.628,4.491,4.491,0,0,0-3.408,1.525,6.075,6.075,0,0,0-1.614,3.856h9.686v-.269Z" transform="translate(-11.005 -12.016)"/>
    <path id="Path_37" data-name="Path 37" class="cls-1" d="M194.26,0H5.74A5.78,5.78,0,0,0,0,5.74V214.888a5.78,5.78,0,0,0,5.74,5.74H194.26a5.78,5.78,0,0,0,5.74-5.74V5.74A5.78,5.78,0,0,0,194.26,0ZM94.888,110.673a7.712,7.712,0,0,1,.807-3.5,6.565,6.565,0,0,1,2.152-2.511,5.006,5.006,0,0,1,2.96-.9,4.885,4.885,0,0,1,3.767,1.614,6.1,6.1,0,0,1,1.435,4.3v.717h-10.4v.717a7.331,7.331,0,0,0,.717,3.139A5.36,5.36,0,0,0,98.3,116.5a4.745,4.745,0,0,0,2.691.807,6,6,0,0,0,2.332-.448,4.311,4.311,0,0,0,1.7-1.435l.448.359a5.729,5.729,0,0,1-7.623,1.345,5.885,5.885,0,0,1-2.152-2.511,7.712,7.712,0,0,1-.807-3.5ZM81.614,98.206h.717v9.058a5.516,5.516,0,0,1,1.973-2.511,5.006,5.006,0,0,1,2.96-.9,4.192,4.192,0,0,1,3.318,1.256,5.718,5.718,0,0,1,1.076,3.767v9.058h-.717v-9.058a4.895,4.895,0,0,0-.9-3.318,3.531,3.531,0,0,0-2.87-1.076,4.644,4.644,0,0,0-3.139,1.256,6.629,6.629,0,0,0-1.794,3.318v8.879h-.628Zm-10.045,5.83h2.6v-3.767h.717v3.767h3.139v.717H74.888v9.865a4.28,4.28,0,0,0,.448,2.152,1.971,1.971,0,0,0,1.614.717,7.745,7.745,0,0,0,1.345-.09l.09.628a5.082,5.082,0,0,1-1.435.179A2.648,2.648,0,0,1,74.8,117.4a4.25,4.25,0,0,1-.628-2.691v-9.955h-2.6ZM57.13,187.444c0,6.726-1.973,11.928-5.83,15.605s-9.148,5.471-16.054,5.471a35.505,35.505,0,0,1-8.341-.9V194.17a28.576,28.576,0,0,0,5.022.448c4.933,0,7.354-2.422,7.354-7.354V122.152H57.13v65.291Zm-2.152-71.031a10.292,10.292,0,0,1-7.085,2.422,10.138,10.138,0,0,1-7.085-2.422c-1.794-1.614-2.78-5.471-2.78-7.982s.9-6.368,2.78-7.982a10.292,10.292,0,0,1,7.085-2.422,10.138,10.138,0,0,1,7.085,2.422c1.794,1.614,2.78,5.471,2.78,7.982C57.668,110.942,56.771,114.8,54.978,116.413Zm20.628,79.821a8.2,8.2,0,0,1-.807,3.677,6.565,6.565,0,0,1-2.152,2.511,6.26,6.26,0,0,1-6.457,0,6.085,6.085,0,0,1-2.242-2.511,7.82,7.82,0,0,1-.807-3.587V195.7a8.2,8.2,0,0,1,.807-3.677,6.565,6.565,0,0,1,2.152-2.511,5.654,5.654,0,0,1,3.229-.9,5.855,5.855,0,0,1,3.229.9,6.775,6.775,0,0,1,2.242,2.511,7.82,7.82,0,0,1,.807,3.587Zm9.686-6.816-.9-.09a4.193,4.193,0,0,0-3.049,1.166,6.137,6.137,0,0,0-1.614,3.229v9.238h-.717v-14.17h.717v2.96a5.113,5.113,0,0,1,1.7-2.332,4.963,4.963,0,0,1,2.87-.9,2.769,2.769,0,0,1,.987.179ZM98.206,202.78a6.186,6.186,0,0,1-1.435,4.395,5.009,5.009,0,0,1-3.946,1.614,5.08,5.08,0,0,1-2.6-.628,6.481,6.481,0,0,1-2.063-1.794l.538-.448a5.987,5.987,0,0,0,1.794,1.614,4.718,4.718,0,0,0,2.332.538,4.392,4.392,0,0,0,3.408-1.345,5.448,5.448,0,0,0,1.256-3.767v-2.152a4.985,4.985,0,0,1-1.973,1.883,5.888,5.888,0,0,1-2.87.628,4.389,4.389,0,0,1-3.857-1.973,8.543,8.543,0,0,1-1.435-5.381v-.179a8.435,8.435,0,0,1,1.435-5.291,4.688,4.688,0,0,1,3.946-1.883,5.567,5.567,0,0,1,2.78.717,5.148,5.148,0,0,1,1.973,2.152v-2.6h.717Zm14.439.269h-.807a9.58,9.58,0,0,1-.269-2.6,5.508,5.508,0,0,1-2.242,2.063,6.7,6.7,0,0,1-3.318.717,4.446,4.446,0,0,1-3.139-1.076,3.471,3.471,0,0,1-1.166-2.78,3.755,3.755,0,0,1,1.794-3.139,7.99,7.99,0,0,1,4.664-1.166h3.5V193a3.716,3.716,0,0,0-1.076-2.78,4.787,4.787,0,0,0-3.229-.987,5.513,5.513,0,0,0-3.229.987,2.863,2.863,0,0,0-1.256,2.422h-.717a3.741,3.741,0,0,1,1.525-2.96,5.644,5.644,0,0,1,3.677-1.166,5.483,5.483,0,0,1,3.677,1.166,3.886,3.886,0,0,1,1.345,3.229v6.726a8.4,8.4,0,0,0,.359,3.139v.269Zm3.946-51.749c0,8.879-2.511,15.964-7.444,21.166s-11.659,7.8-20.09,7.8c-8.072,0-14.619-2.422-19.552-7.265s-7.534-11.48-7.982-19.821l-.09-2.96a33.7,33.7,0,0,1,3.318-15.247,23.365,23.365,0,0,1,9.507-10.224,28.272,28.272,0,0,1,14.619-3.587c8.52,0,15.247,2.6,20.179,7.892s7.354,12.466,7.354,21.614v.628ZM127,203.049h-.717v-9.238a5.432,5.432,0,0,0-.9-3.318,3.656,3.656,0,0,0-2.87-1.076,4.482,4.482,0,0,0-3.139,1.256,6.337,6.337,0,0,0-1.794,3.318v9.058h-.717v-14.17h.717V192.2a5.947,5.947,0,0,1,2.063-2.6,5.1,5.1,0,0,1,2.96-.987,4.535,4.535,0,0,1,3.408,1.256,5.988,5.988,0,0,1,1.076,3.857v9.327Zm5.381,0h-.717v-14.17h.717Zm.09-18.027a.659.659,0,0,1-.538.179,1.275,1.275,0,0,1-.538-.179c-.179-.179-.179-.269-.179-.538a1.275,1.275,0,0,1,.179-.538c.179-.179.269-.179.538-.179a1.275,1.275,0,0,1,.538.179.659.659,0,0,1,.179.538C132.735,184.664,132.646,184.843,132.466,185.022Zm14.439,18.027H135.874v-.538l9.327-12.825h-8.879v-.717h9.865v.628l-9.327,12.825h10.045Zm13-7.534H149.327v.807a7.737,7.737,0,0,0,.717,3.229,6.246,6.246,0,0,0,1.973,2.332,5.035,5.035,0,0,0,2.78.807,6.139,6.139,0,0,0,2.422-.448,6.652,6.652,0,0,0,1.794-1.435l.538.359a5.287,5.287,0,0,1-4.664,2.242,5.563,5.563,0,0,1-3.139-.9A6.085,6.085,0,0,1,149.507,200a7.82,7.82,0,0,1-.807-3.587v-.628a7.82,7.82,0,0,1,.807-3.587,5.965,5.965,0,0,1,2.152-2.511,5.006,5.006,0,0,1,2.96-.9,4.735,4.735,0,0,1,3.857,1.7A6.541,6.541,0,0,1,160,194.888v.628Zm9.6-6.1-.9-.09a4.193,4.193,0,0,0-3.049,1.166,6.137,6.137,0,0,0-1.614,3.229v9.238h-.717v-14.17h.717v2.96a5.113,5.113,0,0,1,1.7-2.332,4.757,4.757,0,0,1,2.87-.9,2.769,2.769,0,0,1,.987.179Zm3.587-38.206c0,9.327-1.973,16.5-5.83,21.525s-9.327,7.534-16.323,7.534a16.769,16.769,0,0,1-13.991-6.906l-.717,5.83H120.359V98.206h17.758v28.52a16.224,16.224,0,0,1,12.825-5.65c7.085,0,12.556,2.511,16.413,7.623s5.83,12.287,5.83,21.525v.987Z"/>
    <path id="Path_38" data-name="Path 38" class="cls-1" d="M162.241,150.4q-6.054,0-8.341,4.574v22.6c1.525,3.049,4.3,4.484,8.43,4.484,4.215,0,6.816-2.063,7.982-6.1.538-1.973.807-5.471.807-10.4,0-5.471-.717-9.417-2.152-11.749A7.444,7.444,0,0,0,162.241,150.4Z" transform="translate(-15.873 -15.512)"/>
    <path id="Path_39" data-name="Path 39" class="cls-1" d="M174.123,211.817a4.51,4.51,0,0,0-2.422-.717,4.828,4.828,0,0,0-3.5,1.525,6.4,6.4,0,0,0-1.7,3.946h9.865v-.179a5.417,5.417,0,0,0-.628-2.691A4.149,4.149,0,0,0,174.123,211.817Z" transform="translate(-17.173 -21.773)"/>
  </g>
</svg>
